<?xml version="1.0" encoding="utf-8"?>
<svg xmlns="http://www.w3.org/2000/svg" xmlns:cc="http://creativecommons.org/ns" xmlns:dc="http://purl.org/dc/elements/1.1/" xmlns:ev="http://www.w3.org/2001/xml-events" xmlns:inkscape="http://www.inkscape.org/namespaces/inkscape" xmlns:rdf="http://www.w3.org/1999/02/22-rdf-syntax-ns" xmlns:sodipodi="http://sodipodi.sourceforge.net/DTD/sodipodi-0.dtd" xmlns:xlink="http://www.w3.org/1999/xlink" baseProfile="tiny" height="9.9cm" version="1.2" viewBox="0 0 793.7007874015749 374.1732283464567" width="21.0cm">
	<metadata>
		<RDF>
			<Work>
				<format>
					image/svg+xml
				</format>
				<source>
					vpype eval 'cell=10;width=210;height=99' eval 'nCols=20;nRows=9' eval 'cells=[0,2,6,7,8,9,10,11,12,13,15,16,17,18,20,22,29,32,37,40,42,45,49,51,52,53,54,55,56,57,58,59,60,61,62,63,64,65,66,69,72,77,80,82,85,87,88,89,90,91,92,94,95,96,97,98,99,100,105,109,112,117,121,122,123,124,125,126,127,130,131,132,133,134,135,136,137,138,145,152,157,164,165,166,167,168,169,170,171,172]' eval 'chars=[&quot;T&quot;,&quot;K&quot;,&quot;S&quot;,&quot;K&quot;,&quot;E&quot;,&quot;L&quot;,&quot;L&quot;,&quot;E&quot;,&quot;K&quot;,&quot;E&quot;,&quot;L&quot;,&quot;I&quot;,&quot;F&quot;,&quot;T&quot;,&quot;E&quot;,&quot;A&quot;,&quot;A&quot;,&quot;L&quot;,&quot;R&quot;,&quot;R&quot;,&quot;S&quot;,&quot;V&quot;,&quot;K&quot;,&quot;M&quot;,&quot;A&quot;,&quot;N&quot;,&quot;D&quot;,&quot;A&quot;,&quot;R&quot;,&quot;I&quot;,&quot;J&quot;,&quot;N&quot;,&quot;R&quot;,&quot;E&quot;,&quot;S&quot;,&quot;T&quot;,&quot;J&quot;,&quot;E&quot;,&quot;S&quot;,&quot;E&quot;,&quot;V&quot;,&quot;E&quot;,&quot;A&quot;,&quot;A&quot;,&quot;L&quot;,&quot;J&quot;,&quot;A&quot;,&quot;N&quot;,&quot;T&quot;,&quot;J&quot;,&quot;E&quot;,&quot;C&quot;,&quot;E&quot;,&quot;N&quot;,&quot;T&quot;,&quot;J&quot;,&quot;E&quot;,&quot;S&quot;,&quot;L&quot;,&quot;S&quot;,&quot;R&quot;,&quot;J&quot;,&quot;P&quot;,&quot;I&quot;,&quot;N&quot;,&quot;K&quot;,&quot;E&quot;,&quot;R&quot;,&quot;S&quot;,&quot;U&quot;,&quot;I&quot;,&quot;T&quot;,&quot;L&quot;,&quot;I&quot;,&quot;K&quot;,&quot;K&quot;,&quot;E&quot;,&quot;N&quot;,&quot;K&quot;,&quot;J&quot;,&quot;S&quot;,&quot;R&quot;,&quot;E&quot;,&quot;K&quot;,&quot;K&quot;,&quot;E&quot;,&quot;R&quot;,&quot;T&quot;,&quot;J&quot;,&quot;E&quot;]' eval 'numbers=[0,2,6,9,12,15,17,45,51,60,87,94,121,130,164]' eval counter=1 eval charIndex=0 begin grid -o '%cell*mm%' '%cell*mm%' %nCols% %nRows% eval '%isCell=_i in cells%' eval '%number=_i in numbers%' eval '%size=10 if isCell else 0%' rect 0 0 '%size*mm%' '%size*mm%' text -s 10 -p 0.5mm 1.5mm '%counter if number else '&quot;'&quot;''&quot;'&quot;'%' text -s 20 -p 5mm 5mm -a center '%chars[charIndex] if isCell else '&quot;'&quot;''&quot;'&quot;'%' eval '%if number: counter+=1 %' eval '%if isCell: charIndex+=1 %' end splitall deduplicate linemerge --tolerance 0.1mm write -m none --page-size '%width*mm%x%height*mm%' --center ./svgs/solution/2da66c.svg
				</source>
				<date>
					2024-01-12T20:09:58.976956
				</date>
			</Work>
		</RDF>
	</metadata>
	<defs />
	<g fill="none" id="layer1" inkscape:groupmode="layer" inkscape:label="1" stroke="#000000" style="display:inline">
		<polygon points="18.8976,17.0079 18.8976,54.8031 18.8976,54.8031 56.6929,54.8031 56.6929,54.8031 56.6929,17.0079 56.6929,17.0079" />
		<polyline points="22.6624,20.1772 23.2874,19.8647 23.2874,19.8647 24.2249,18.9272 24.2249,18.9272 24.2249,25.4897" />
		<line x1="38.4203" x2="38.4203" y1="28.4055" y2="41.5305" />
		<line x1="34.0453" x2="42.7953" y1="28.4055" y2="28.4055" />
		<polygon points="94.4882,17.0079 94.4882,54.8031 94.4882,54.8031 94.4882,92.5984 94.4882,92.5984 132.2835,92.5984 132.2835,92.5984 132.2835,54.8031 132.2835,54.8031 132.2835,17.0079 132.2835,17.0079" />
		<line x1="94.4882" x2="132.2835" y1="54.8031" y2="54.8031" />
		<polyline points="97.628,20.4897 97.628,20.1772 97.628,20.1772 97.9405,19.5522 97.9405,19.5522 98.253,19.2397 98.253,19.2397 98.878,18.9272 98.878,18.9272 100.128,18.9272 100.128,18.9272 100.753,19.2397 100.753,19.2397 101.0655,19.5522 101.0655,19.5522 101.378,20.1772 101.378,20.1772 101.378,20.8022 101.378,20.8022 101.0655,21.4272 101.0655,21.4272 100.4405,22.3647 100.4405,22.3647 97.3155,25.4897 97.3155,25.4897 101.6905,25.4897" />
		<line x1="111.5108" x2="111.5108" y1="28.4055" y2="41.5305" />
		<line x1="120.2608" x2="111.5108" y1="28.4055" y2="37.1555" />
		<line x1="114.6358" x2="120.2608" y1="34.0305" y2="41.5305" />
		<polygon points="245.6693,17.0079 245.6693,54.8031 245.6693,54.8031 283.4646,54.8031 283.4646,54.8031 321.2598,54.8031 321.2598,54.8031 321.2598,17.0079 321.2598,17.0079 283.4646,17.0079 283.4646,17.0079" />
		<line x1="283.4646" x2="283.4646" y1="54.8031" y2="17.0079" />
		<polyline points="249.1216,18.9272 252.5591,18.9272 252.5591,18.9272 250.6841,21.4272 250.6841,21.4272 251.6216,21.4272 251.6216,21.4272 252.2466,21.7397 252.2466,21.7397 252.5591,22.0522 252.5591,22.0522 252.8716,22.9897 252.8716,22.9897 252.8716,23.6147 252.8716,23.6147 252.5591,24.5522 252.5591,24.5522 251.9341,25.1772 251.9341,25.1772 250.9966,25.4897 250.9966,25.4897 250.0591,25.4897 250.0591,25.4897 249.1216,25.1772 249.1216,25.1772 248.8091,24.8647 248.8091,24.8647 248.4966,24.2397" />
		<polyline points="270.8169,30.2805 269.5669,29.0305 269.5669,29.0305 267.6919,28.4055 267.6919,28.4055 265.1919,28.4055 265.1919,28.4055 263.3169,29.0305 263.3169,29.0305 262.0669,30.2805 262.0669,30.2805 262.0669,31.5305 262.0669,31.5305 262.6919,32.7805 262.6919,32.7805 263.3169,33.4055 263.3169,33.4055 264.5669,34.0305 264.5669,34.0305 268.3169,35.2805 268.3169,35.2805 269.5669,35.9055 269.5669,35.9055 270.1919,36.5305 270.1919,36.5305 270.8169,37.7805 270.8169,37.7805 270.8169,39.6555 270.8169,39.6555 269.5669,40.9055 269.5669,40.9055 267.6919,41.5305 267.6919,41.5305 265.1919,41.5305 265.1919,41.5305 263.3169,40.9055 263.3169,40.9055 262.0669,39.6555" />
		<line x1="300.4872" x2="300.4872" y1="28.4055" y2="41.5305" />
		<line x1="309.2372" x2="300.4872" y1="28.4055" y2="37.1555" />
		<line x1="303.6122" x2="309.2372" y1="34.0305" y2="41.5305" />
		<polyline points="321.2598,54.8031 359.0551,54.8031 359.0551,54.8031 396.8504,54.8031 396.8504,54.8031 396.8504,17.0079 396.8504,17.0079 359.0551,17.0079 359.0551,17.0079 321.2598,17.0079" />
		<polyline points="396.8504,17.0079 434.6457,17.0079 434.6457,17.0079 434.6457,54.8031 434.6457,54.8031 396.8504,54.8031 396.8504,54.8031 396.8504,92.5984 396.8504,92.5984 396.8504,130.3937 396.8504,130.3937 359.0551,130.3937 359.0551,130.3937 359.0551,92.5984 359.0551,92.5984 359.0551,54.8031 359.0551,54.8031 359.0551,17.0079" />
		<polyline points="346.72,28.4055 338.595,28.4055 338.595,28.4055 338.595,41.5305 338.595,41.5305 346.72,41.5305" />
		<line x1="338.595" x2="343.595" y1="34.6555" y2="34.6555" />
		<polyline points="365.0074,25.4897 365.0074,18.9272 365.0074,18.9272 361.8824,23.3022 361.8824,23.3022 366.5699,23.3022" />
		<polyline points="376.7028,28.4055 376.7028,41.5305 376.7028,41.5305 384.2028,41.5305" />
		<polyline points="414.498,28.4055 414.498,41.5305 414.498,41.5305 421.998,41.5305" />
		<polyline points="434.6457,54.8031 472.4409,54.8031 472.4409,54.8031 472.4409,92.5984 472.4409,92.5984 510.2362,92.5984 510.2362,92.5984 510.2362,54.8031 510.2362,54.8031 510.2362,17.0079 510.2362,17.0079 472.4409,17.0079 472.4409,17.0079 434.6457,17.0079" />
		<polyline points="510.2362,17.0079 548.0315,17.0079 548.0315,17.0079 548.0315,54.8031 548.0315,54.8031 510.2362,54.8031 510.2362,54.8031 472.4409,54.8031 472.4409,54.8031 472.4409,17.0079" />
		<polyline points="460.1058,28.4055 451.9808,28.4055 451.9808,28.4055 451.9808,41.5305 451.9808,41.5305 460.1058,41.5305" />
		<line x1="451.9808" x2="456.9808" y1="34.6555" y2="34.6555" />
		<polyline points="479.0182,18.9272 475.8932,18.9272 475.8932,18.9272 475.5807,21.7397 475.5807,21.7397 475.8932,21.4272 475.8932,21.4272 476.8307,21.1147 476.8307,21.1147 477.7682,21.1147 477.7682,21.1147 478.7057,21.4272 478.7057,21.4272 479.3307,22.0522 479.3307,22.0522 479.6432,22.9897 479.6432,22.9897 479.6432,23.6147 479.6432,23.6147 479.3307,24.5522 479.3307,24.5522 478.7057,25.1772 478.7057,25.1772 477.7682,25.4897 477.7682,25.4897 476.8307,25.4897 476.8307,25.4897 475.8932,25.1772 475.8932,25.1772 475.5807,24.8647 475.5807,24.8647 475.2682,24.2397" />
		<line x1="489.4636" x2="489.4636" y1="28.4055" y2="41.5305" />
		<line x1="498.2136" x2="489.4636" y1="28.4055" y2="37.1555" />
		<line x1="492.5886" x2="498.2136" y1="34.0305" y2="41.5305" />
		<polyline points="535.6964,28.4055 527.5714,28.4055 527.5714,28.4055 527.5714,41.5305 527.5714,41.5305 535.6964,41.5305" />
		<line x1="527.5714" x2="532.5714" y1="34.6555" y2="34.6555" />
		<polygon points="585.8268,17.0079 585.8268,54.8031 585.8268,54.8031 623.622,54.8031 623.622,54.8031 623.622,17.0079 623.622,17.0079" />
		<polyline points="592.7165,19.8647 592.404,19.2397 592.404,19.2397 591.4665,18.9272 591.4665,18.9272 590.8415,18.9272 590.8415,18.9272 589.904,19.2397 589.904,19.2397 589.279,20.1772 589.279,20.1772 588.9665,21.7397 588.9665,21.7397 588.9665,23.3022 588.9665,23.3022 589.279,24.5522 589.279,24.5522 589.904,25.1772 589.904,25.1772 590.8415,25.4897 590.8415,25.4897 591.154,25.4897 591.154,25.4897 592.0915,25.1772 592.0915,25.1772 592.7165,24.5522 592.7165,24.5522 593.029,23.6147 593.029,23.6147 593.029,23.3022 593.029,23.3022 592.7165,22.3647 592.7165,22.3647 592.0915,21.7397 592.0915,21.7397 591.154,21.4272 591.154,21.4272 590.8415,21.4272 590.8415,21.4272 589.904,21.7397 589.904,21.7397 589.279,22.3647 589.279,22.3647 588.9665,23.3022" />
		<polyline points="603.4744,28.4055 603.4744,41.5305 603.4744,41.5305 610.9744,41.5305" />
		<polyline points="623.622,54.8031 661.4173,54.8031 661.4173,54.8031 661.4173,17.0079 661.4173,17.0079 623.622,17.0079" />
		<line x1="645.0197" x2="645.0197" y1="28.4055" y2="41.5305" />
		<polyline points="699.2126,17.0079 737.0079,17.0079 737.0079,17.0079 737.0079,54.8031 737.0079,54.8031 699.2126,54.8031 699.2126,54.8031 699.2126,92.5984 699.2126,92.5984 661.4173,92.5984 661.4173,92.5984 661.4173,54.8031 661.4173,54.8031 699.2126,54.8031 699.2126,54.8031 699.2126,17.0079 699.2126,17.0079 661.4173,17.0079" />
		<polyline points="664.2446,18.9272 668.6196,18.9272 668.6196,18.9272 665.4946,25.4897" />
		<polyline points="686.8775,28.4055 678.7525,28.4055 678.7525,28.4055 678.7525,41.5305" />
		<line x1="678.7525" x2="683.7525" y1="34.6555" y2="34.6555" />
		<line x1="718.7352" x2="718.7352" y1="28.4055" y2="41.5305" />
		<line x1="714.3602" x2="723.1102" y1="28.4055" y2="28.4055" />
		<polyline points="18.8976,54.8031 18.8976,92.5984 18.8976,92.5984 56.6929,92.5984 56.6929,92.5984 56.6929,54.8031" />
		<polyline points="44.3578,66.2008 36.2328,66.2008 36.2328,66.2008 36.2328,79.3258 36.2328,79.3258 44.3578,79.3258" />
		<line x1="36.2328" x2="41.2328" y1="72.4508" y2="72.4508" />
		<polyline points="119.0108,79.3258 114.0108,66.2008 114.0108,66.2008 109.0108,79.3258" />
		<line x1="110.8858" x2="117.1358" y1="74.9508" y2="74.9508" />
		<line x1="359.0551" x2="396.8504" y1="92.5984" y2="92.5984" />
		<polyline points="383.5778,79.3258 378.5778,66.2008 378.5778,66.2008 373.5778,79.3258" />
		<line x1="375.4528" x2="381.7028" y1="74.9508" y2="74.9508" />
		<polyline points="490.0886,66.2008 490.0886,79.3258 490.0886,79.3258 497.5886,79.3258" />
		<polyline points="678.44,72.4508 684.065,72.4508 684.065,72.4508 685.94,71.8258 685.94,71.8258 686.565,71.2008 686.565,71.2008 687.19,69.9508 687.19,69.9508 687.19,68.7008 687.19,68.7008 686.565,67.4508 686.565,67.4508 685.94,66.8258 685.94,66.8258 684.065,66.2008 684.065,66.2008 678.44,66.2008 678.44,66.2008 678.44,79.3258" />
		<line x1="682.815" x2="687.19" y1="72.4508" y2="79.3258" />
		<polyline points="18.8976,92.5984 18.8976,130.3937 18.8976,130.3937 18.8976,168.189 18.8976,168.189 18.8976,205.9843 18.8976,205.9843 18.8976,243.7795 18.8976,243.7795 56.6929,243.7795 56.6929,243.7795 56.6929,205.9843 56.6929,205.9843 56.6929,168.189 56.6929,168.189 94.4882,168.189 94.4882,168.189 94.4882,205.9843 94.4882,205.9843 132.2835,205.9843 132.2835,205.9843 132.2835,168.189 132.2835,168.189 170.0787,168.189 170.0787,168.189 207.874,168.189 207.874,168.189 207.874,205.9843 207.874,205.9843 207.874,243.7795 207.874,243.7795 245.6693,243.7795 245.6693,243.7795 245.6693,205.9843 245.6693,205.9843 245.6693,168.189 245.6693,168.189 245.6693,130.3937 245.6693,130.3937 245.6693,92.5984 245.6693,92.5984 207.874,92.5984 207.874,92.5984 207.874,130.3937 207.874,130.3937 170.0787,130.3937 170.0787,130.3937 132.2835,130.3937 132.2835,130.3937 132.2835,92.5984" />
		<polyline points="18.8976,130.3937 56.6929,130.3937 56.6929,130.3937 56.6929,92.5984" />
		<polyline points="35.9203,110.2461 41.5453,110.2461 41.5453,110.2461 43.4203,109.6211 43.4203,109.6211 44.0453,108.9961 44.0453,108.9961 44.6703,107.7461 44.6703,107.7461 44.6703,106.4961 44.6703,106.4961 44.0453,105.2461 44.0453,105.2461 43.4203,104.6211 43.4203,104.6211 41.5453,103.9961 41.5453,103.9961 35.9203,103.9961 35.9203,103.9961 35.9203,117.1211" />
		<line x1="40.2953" x2="44.6703" y1="110.2461" y2="117.1211" />
		<polyline points="94.4882,92.5984 94.4882,130.3937 94.4882,130.3937 56.6929,130.3937 56.6929,130.3937 56.6929,168.189 56.6929,168.189 18.8976,168.189" />
		<polygon points="94.4882,130.3937 132.2835,130.3937 132.2835,130.3937 132.2835,168.189 132.2835,168.189 94.4882,168.189 94.4882,168.189" />
		<polyline points="119.6358,105.8711 118.3858,104.6211 118.3858,104.6211 116.5108,103.9961 116.5108,103.9961 114.0108,103.9961 114.0108,103.9961 112.1358,104.6211 112.1358,104.6211 110.8858,105.8711 110.8858,105.8711 110.8858,107.1211 110.8858,107.1211 111.5108,108.3711 111.5108,108.3711 112.1358,108.9961 112.1358,108.9961 113.3858,109.6211 113.3858,109.6211 117.1358,110.8711 117.1358,110.8711 118.3858,111.4961 118.3858,111.4961 119.0108,112.1211 119.0108,112.1211 119.6358,113.3711 119.6358,113.3711 119.6358,115.2461 119.6358,115.2461 118.3858,116.4961 118.3858,116.4961 116.5108,117.1211 116.5108,117.1211 114.0108,117.1211 114.0108,117.1211 112.1358,116.4961 112.1358,116.4961 110.8858,115.2461" />
		<polyline points="359.0551,130.3937 359.0551,168.189 359.0551,168.189 359.0551,205.9843 359.0551,205.9843 359.0551,243.7795 359.0551,243.7795 396.8504,243.7795 396.8504,243.7795 396.8504,205.9843 396.8504,205.9843 434.6457,205.9843 434.6457,205.9843 434.6457,168.189 434.6457,168.189 396.8504,168.189 396.8504,168.189 359.0551,168.189 359.0551,168.189 321.2598,168.189 321.2598,168.189 283.4646,168.189 283.4646,168.189 245.6693,168.189 245.6693,168.189 207.874,168.189 207.874,168.189 207.874,130.3937 207.874,130.3937 245.6693,130.3937 245.6693,130.3937 283.4646,130.3937 283.4646,130.3937 283.4646,168.189 283.4646,168.189 283.4646,205.9843 283.4646,205.9843 321.2598,205.9843 321.2598,205.9843 359.0551,205.9843 359.0551,205.9843 396.8504,205.9843 396.8504,205.9843 396.8504,168.189 396.8504,168.189 396.8504,130.3937" />
		<polygon points="212.2638,94.5177 211.3263,94.8302 211.3263,94.8302 211.0138,95.4552 211.0138,95.4552 211.0138,96.0802 211.0138,96.0802 211.3263,96.7052 211.3263,96.7052 211.9513,97.0177 211.9513,97.0177 213.2013,97.3302 213.2013,97.3302 214.1388,97.6427 214.1388,97.6427 214.7638,98.2677 214.7638,98.2677 215.0763,98.8927 215.0763,98.8927 215.0763,99.8302 215.0763,99.8302 214.7638,100.4552 214.7638,100.4552 214.4513,100.7677 214.4513,100.7677 213.5138,101.0802 213.5138,101.0802 212.2638,101.0802 212.2638,101.0802 211.3263,100.7677 211.3263,100.7677 211.0138,100.4552 211.0138,100.4552 210.7013,99.8302 210.7013,99.8302 210.7013,98.8927 210.7013,98.8927 211.0138,98.2677 211.0138,98.2677 211.6388,97.6427 211.6388,97.6427 212.5763,97.3302 212.5763,97.3302 213.8263,97.0177 213.8263,97.0177 214.4513,96.7052 214.4513,96.7052 214.7638,96.0802 214.7638,96.0802 214.7638,95.4552 214.7638,95.4552 214.4513,94.8302 214.4513,94.8302 213.5138,94.5177 213.5138,94.5177" />
		<polyline points="222.3967,103.9961 227.3967,117.1211 227.3967,117.1211 232.3967,103.9961" />
		<line x1="376.0778" x2="376.0778" y1="103.9961" y2="117.1211" />
		<line x1="384.8278" x2="376.0778" y1="103.9961" y2="112.7461" />
		<line x1="379.2028" x2="384.8278" y1="109.6211" y2="117.1211" />
		<polyline points="510.2362,168.189 510.2362,205.9843 510.2362,205.9843 472.4409,205.9843 472.4409,205.9843 472.4409,168.189 472.4409,168.189 510.2362,168.189 510.2362,168.189 510.2362,130.3937 510.2362,130.3937 510.2362,92.5984 510.2362,92.5984 548.0315,92.5984 548.0315,92.5984 548.0315,130.3937 548.0315,130.3937 510.2362,130.3937 510.2362,130.3937 472.4409,130.3937 472.4409,130.3937 472.4409,92.5984 472.4409,92.5984 434.6457,92.5984 434.6457,92.5984 434.6457,130.3937 434.6457,130.3937 472.4409,130.3937 472.4409,130.3937 472.4409,168.189 472.4409,168.189 434.6457,168.189" />
		<polyline points="441.5354,96.7052 441.2229,97.6427 441.2229,97.6427 440.5979,98.2677 440.5979,98.2677 439.6604,98.5802 439.6604,98.5802 439.3479,98.5802 439.3479,98.5802 438.4104,98.2677 438.4104,98.2677 437.7854,97.6427 437.7854,97.6427 437.4729,96.7052 437.4729,96.7052 437.4729,96.3927 437.4729,96.3927 437.7854,95.4552 437.7854,95.4552 438.4104,94.8302 438.4104,94.8302 439.3479,94.5177 439.3479,94.5177 439.6604,94.5177 439.6604,94.5177 440.5979,94.8302 440.5979,94.8302 441.2229,95.4552 441.2229,95.4552 441.5354,96.7052 441.5354,96.7052 441.5354,98.2677 441.5354,98.2677 441.2229,99.8302 441.2229,99.8302 440.5979,100.7677 440.5979,100.7677 439.6604,101.0802 439.6604,101.0802 439.0354,101.0802 439.0354,101.0802 438.0979,100.7677 438.0979,100.7677 437.7854,100.1427" />
		<polyline points="461.0433,117.1211 461.0433,103.9961 461.0433,103.9961 456.0433,117.1211 456.0433,117.1211 451.0433,103.9961 451.0433,103.9961 451.0433,117.1211" />
		<polyline points="496.9636,117.1211 491.9636,103.9961 491.9636,103.9961 486.9636,117.1211" />
		<line x1="488.8386" x2="495.0886" y1="112.7461" y2="112.7461" />
		<polyline points="536.0089,103.9961 536.0089,117.1211 536.0089,117.1211 527.2589,103.9961 527.2589,103.9961 527.2589,117.1211" />
		<polyline points="548.0315,130.3937 585.8268,130.3937 585.8268,130.3937 585.8268,92.5984 585.8268,92.5984 548.0315,92.5984" />
		<polygon points="565.0541,103.9961 565.0541,117.1211 565.0541,117.1211 569.4291,117.1211 569.4291,117.1211 571.3041,116.4961 571.3041,116.4961 572.5541,115.2461 572.5541,115.2461 573.1791,113.9961 573.1791,113.9961 573.8041,112.1211 573.8041,112.1211 573.8041,108.9961 573.8041,108.9961 573.1791,107.1211 573.1791,107.1211 572.5541,105.8711 572.5541,105.8711 571.3041,104.6211 571.3041,104.6211 569.4291,103.9961 569.4291,103.9961" />
		<polyline points="585.8268,130.3937 623.622,130.3937 623.622,130.3937 661.4173,130.3937 661.4173,130.3937 699.2126,130.3937 699.2126,130.3937 699.2126,92.5984 699.2126,92.5984 737.0079,92.5984 737.0079,92.5984 774.8031,92.5984 774.8031,92.5984 774.8031,130.3937 774.8031,130.3937 737.0079,130.3937 737.0079,130.3937 737.0079,92.5984" />
		<polyline points="623.622,130.3937 623.622,92.5984 623.622,92.5984 585.8268,92.5984" />
		<polyline points="610.3494,117.1211 605.3494,103.9961 605.3494,103.9961 600.3494,117.1211" />
		<line x1="602.2244" x2="608.4744" y1="112.7461" y2="112.7461" />
		<polyline points="737.0079,130.3937 699.2126,130.3937 699.2126,130.3937 699.2126,168.189 699.2126,168.189 661.4173,168.189 661.4173,168.189 661.4173,130.3937 661.4173,130.3937 661.4173,92.5984 661.4173,92.5984 623.622,92.5984" />
		<polyline points="640.6447,110.2461 646.2697,110.2461 646.2697,110.2461 648.1447,109.6211 648.1447,109.6211 648.7697,108.9961 648.7697,108.9961 649.3947,107.7461 649.3947,107.7461 649.3947,106.4961 649.3947,106.4961 648.7697,105.2461 648.7697,105.2461 648.1447,104.6211 648.1447,104.6211 646.2697,103.9961 646.2697,103.9961 640.6447,103.9961 640.6447,103.9961 640.6447,117.1211" />
		<line x1="645.0197" x2="649.3947" y1="110.2461" y2="117.1211" />
		<line x1="682.815" x2="682.815" y1="103.9961" y2="117.1211" />
		<polyline points="722.4852,103.9961 722.4852,113.9961 722.4852,113.9961 721.8602,115.8711 721.8602,115.8711 721.2352,116.4961 721.2352,116.4961 719.9852,117.1211 719.9852,117.1211 718.7352,117.1211 718.7352,117.1211 717.4852,116.4961 717.4852,116.4961 716.8602,115.8711 716.8602,115.8711 716.2352,113.9961 716.2352,113.9961 716.2352,112.7461" />
		<polyline points="762.7805,103.9961 762.7805,117.1211 762.7805,117.1211 754.0305,103.9961 754.0305,103.9961 754.0305,117.1211" />
		<polyline points="22.6624,133.563 23.2874,133.2505 23.2874,133.2505 24.2249,132.313 24.2249,132.313 24.2249,138.8755" />
		<polygon points="29.8499,132.313 28.9124,132.6255 28.9124,132.6255 28.2874,133.563 28.2874,133.563 27.9749,135.1255 27.9749,135.1255 27.9749,136.063 27.9749,136.063 28.2874,137.6255 28.2874,137.6255 28.9124,138.563 28.9124,138.563 29.8499,138.8755 29.8499,138.8755 30.4749,138.8755 30.4749,138.8755 31.4124,138.563 31.4124,138.563 32.0374,137.6255 32.0374,137.6255 32.3499,136.063 32.3499,136.063 32.3499,135.1255 32.3499,135.1255 32.0374,133.563 32.0374,133.563 31.4124,132.6255 31.4124,132.6255 30.4749,132.313 30.4749,132.313" />
		<polyline points="35.9203,148.0413 41.5453,148.0413 41.5453,148.0413 43.4203,147.4163 43.4203,147.4163 44.0453,146.7913 44.0453,146.7913 44.6703,145.5413 44.6703,145.5413 44.6703,144.2913 44.6703,144.2913 44.0453,143.0413 44.0453,143.0413 43.4203,142.4163 43.4203,142.4163 41.5453,141.7913 41.5453,141.7913 35.9203,141.7913 35.9203,141.7913 35.9203,154.9163" />
		<line x1="40.2953" x2="44.6703" y1="148.0413" y2="154.9163" />
		<polyline points="82.1531,141.7913 74.0281,141.7913 74.0281,141.7913 74.0281,154.9163 74.0281,154.9163 82.1531,154.9163" />
		<line x1="74.0281" x2="79.0281" y1="148.0413" y2="148.0413" />
		<polyline points="119.6358,143.6663 118.3858,142.4163 118.3858,142.4163 116.5108,141.7913 116.5108,141.7913 114.0108,141.7913 114.0108,141.7913 112.1358,142.4163 112.1358,142.4163 110.8858,143.6663 110.8858,143.6663 110.8858,144.9163 110.8858,144.9163 111.5108,146.1663 111.5108,146.1663 112.1358,146.7913 112.1358,146.7913 113.3858,147.4163 113.3858,147.4163 117.1358,148.6663 117.1358,148.6663 118.3858,149.2913 118.3858,149.2913 119.0108,149.9163 119.0108,149.9163 119.6358,151.1663 119.6358,151.1663 119.6358,153.0413 119.6358,153.0413 118.3858,154.2913 118.3858,154.2913 116.5108,154.9163 116.5108,154.9163 114.0108,154.9163 114.0108,154.9163 112.1358,154.2913 112.1358,154.2913 110.8858,153.0413" />
		<line x1="170.0787" x2="170.0787" y1="168.189" y2="130.3937" />
		<line x1="151.8061" x2="151.8061" y1="141.7913" y2="154.9163" />
		<line x1="147.4311" x2="156.1811" y1="141.7913" y2="141.7913" />
		<polyline points="193.3514,141.7913 193.3514,151.7913 193.3514,151.7913 192.7264,153.6663 192.7264,153.6663 192.1014,154.2913 192.1014,154.2913 190.8514,154.9163 190.8514,154.9163 189.6014,154.9163 189.6014,154.9163 188.3514,154.2913 188.3514,154.2913 187.7264,153.6663 187.7264,153.6663 187.1014,151.7913 187.1014,151.7913 187.1014,150.5413" />
		<polyline points="233.3342,141.7913 225.2092,141.7913 225.2092,141.7913 225.2092,154.9163 225.2092,154.9163 233.3342,154.9163" />
		<line x1="225.2092" x2="230.2092" y1="148.0413" y2="148.0413" />
		<polyline points="270.8169,143.6663 269.5669,142.4163 269.5669,142.4163 267.6919,141.7913 267.6919,141.7913 265.1919,141.7913 265.1919,141.7913 263.3169,142.4163 263.3169,142.4163 262.0669,143.6663 262.0669,143.6663 262.0669,144.9163 262.0669,144.9163 262.6919,146.1663 262.6919,146.1663 263.3169,146.7913 263.3169,146.7913 264.5669,147.4163 264.5669,147.4163 268.3169,148.6663 268.3169,148.6663 269.5669,149.2913 269.5669,149.2913 270.1919,149.9163 270.1919,149.9163 270.8169,151.1663 270.8169,151.1663 270.8169,153.0413 270.8169,153.0413 269.5669,154.2913 269.5669,154.2913 267.6919,154.9163 267.6919,154.9163 265.1919,154.9163 265.1919,154.9163 263.3169,154.2913 263.3169,154.2913 262.0669,153.0413" />
		<polyline points="384.5153,141.7913 376.3903,141.7913 376.3903,141.7913 376.3903,154.9163 376.3903,154.9163 384.5153,154.9163" />
		<line x1="376.3903" x2="381.3903" y1="148.0413" y2="148.0413" />
		<polyline points="486.9636,141.7913 491.9636,154.9163 491.9636,154.9163 496.9636,141.7913" />
		<polyline points="686.8775,141.7913 678.7525,141.7913 678.7525,141.7913 678.7525,154.9163 678.7525,154.9163 686.8775,154.9163" />
		<line x1="678.7525" x2="683.7525" y1="148.0413" y2="148.0413" />
		<line x1="18.8976" x2="56.6929" y1="205.9843" y2="205.9843" />
		<polyline points="43.4203,192.7116 38.4203,179.5866 38.4203,179.5866 33.4203,192.7116" />
		<line x1="35.2953" x2="41.5453" y1="188.3366" y2="188.3366" />
		<polyline points="119.0108,192.7116 114.0108,179.5866 114.0108,179.5866 109.0108,192.7116" />
		<line x1="110.8858" x2="117.1358" y1="188.3366" y2="188.3366" />
		<line x1="207.874" x2="245.6693" y1="205.9843" y2="205.9843" />
		<polyline points="225.5217,179.5866 225.5217,192.7116 225.5217,192.7116 233.0217,192.7116" />
		<line x1="321.2598" x2="321.2598" y1="205.9843" y2="168.189" />
		<polyline points="287.2293,171.3583 287.8543,171.0458 287.8543,171.0458 288.7918,170.1083 288.7918,170.1083 288.7918,176.6708" />
		<polyline points="293.4793,171.3583 294.1043,171.0458 294.1043,171.0458 295.0418,170.1083 295.0418,170.1083 295.0418,176.6708" />
		<polyline points="306.7372,179.5866 306.7372,189.5866 306.7372,189.5866 306.1122,191.4616 306.1122,191.4616 305.4872,192.0866 305.4872,192.0866 304.2372,192.7116 304.2372,192.7116 302.9872,192.7116 302.9872,192.7116 301.7372,192.0866 301.7372,192.0866 301.1122,191.4616 301.1122,191.4616 300.4872,189.5866 300.4872,189.5866 300.4872,188.3366" />
		<polyline points="345.7825,192.7116 340.7825,179.5866 340.7825,179.5866 335.7825,192.7116" />
		<line x1="337.6575" x2="343.9075" y1="188.3366" y2="188.3366" />
		<polyline points="384.8278,179.5866 384.8278,192.7116 384.8278,192.7116 376.0778,179.5866 376.0778,179.5866 376.0778,192.7116" />
		<line x1="416.373" x2="416.373" y1="179.5866" y2="192.7116" />
		<line x1="411.998" x2="420.748" y1="179.5866" y2="179.5866" />
		<polyline points="434.6457,205.9843 472.4409,205.9843 472.4409,205.9843 472.4409,243.7795 472.4409,243.7795 510.2362,243.7795 510.2362,243.7795 510.2362,205.9843" />
		<polyline points="457.9183,179.5866 457.9183,189.5866 457.9183,189.5866 457.2933,191.4616 457.2933,191.4616 456.6683,192.0866 456.6683,192.0866 455.4183,192.7116 455.4183,192.7116 454.1683,192.7116 454.1683,192.7116 452.9183,192.0866 452.9183,192.0866 452.2933,191.4616 452.2933,191.4616 451.6683,189.5866 451.6683,189.5866 451.6683,188.3366" />
		<polyline points="497.9011,179.5866 489.7761,179.5866 489.7761,179.5866 489.7761,192.7116 489.7761,192.7116 497.9011,192.7116" />
		<line x1="489.7761" x2="494.7761" y1="185.8366" y2="185.8366" />
		<polygon points="548.0315,168.189 548.0315,205.9843 548.0315,205.9843 585.8268,205.9843 585.8268,205.9843 585.8268,168.189 585.8268,168.189" />
		<polyline points="551.7963,171.3583 552.4213,171.0458 552.4213,171.0458 553.3588,170.1083 553.3588,170.1083 553.3588,176.6708" />
		<polyline points="557.4213,171.6708 557.4213,171.3583 557.4213,171.3583 557.7338,170.7333 557.7338,170.7333 558.0463,170.4208 558.0463,170.4208 558.6713,170.1083 558.6713,170.1083 559.9213,170.1083 559.9213,170.1083 560.5463,170.4208 560.5463,170.4208 560.8588,170.7333 560.8588,170.7333 561.1713,171.3583 561.1713,171.3583 561.1713,171.9833 561.1713,171.9833 560.8588,172.6083 560.8588,172.6083 560.2338,173.5458 560.2338,173.5458 557.1088,176.6708 557.1088,176.6708 561.4838,176.6708" />
		<polyline points="573.4916,182.7116 572.8666,181.4616 572.8666,181.4616 571.6166,180.2116 571.6166,180.2116 570.3666,179.5866 570.3666,179.5866 567.8666,179.5866 567.8666,179.5866 566.6166,180.2116 566.6166,180.2116 565.3666,181.4616 565.3666,181.4616 564.7416,182.7116 564.7416,182.7116 564.1166,184.5866 564.1166,184.5866 564.1166,187.7116 564.1166,187.7116 564.7416,189.5866 564.7416,189.5866 565.3666,190.8366 565.3666,190.8366 566.6166,192.0866 566.6166,192.0866 567.8666,192.7116 567.8666,192.7116 570.3666,192.7116 570.3666,192.7116 571.6166,192.0866 571.6166,192.0866 572.8666,190.8366 572.8666,190.8366 573.4916,189.5866" />
		<polyline points="585.8268,205.9843 623.622,205.9843 623.622,205.9843 623.622,168.189 623.622,168.189 585.8268,168.189" />
		<polyline points="611.2869,179.5866 603.1619,179.5866 603.1619,179.5866 603.1619,192.7116 603.1619,192.7116 611.2869,192.7116" />
		<line x1="603.1619" x2="608.1619" y1="185.8366" y2="185.8366" />
		<polyline points="623.622,205.9843 661.4173,205.9843 661.4173,205.9843 699.2126,205.9843 699.2126,205.9843 699.2126,168.189 699.2126,168.189 737.0079,168.189 737.0079,168.189 774.8031,168.189 774.8031,168.189 774.8031,205.9843 774.8031,205.9843 737.0079,205.9843 737.0079,205.9843 737.0079,168.189" />
		<polyline points="737.0079,205.9843 699.2126,205.9843 699.2126,205.9843 699.2126,243.7795 699.2126,243.7795 661.4173,243.7795 661.4173,243.7795 661.4173,205.9843 661.4173,205.9843 661.4173,168.189 661.4173,168.189 623.622,168.189" />
		<polyline points="649.3947,179.5866 649.3947,192.7116 649.3947,192.7116 640.6447,179.5866 640.6447,179.5866 640.6447,192.7116" />
		<line x1="680.94" x2="680.94" y1="179.5866" y2="192.7116" />
		<line x1="676.565" x2="685.315" y1="179.5866" y2="179.5866" />
		<polyline points="722.4852,179.5866 722.4852,189.5866 722.4852,189.5866 721.8602,191.4616 721.8602,191.4616 721.2352,192.0866 721.2352,192.0866 719.9852,192.7116 719.9852,192.7116 718.7352,192.7116 718.7352,192.7116 717.4852,192.0866 717.4852,192.0866 716.8602,191.4616 716.8602,191.4616 716.2352,189.5866 716.2352,189.5866 716.2352,188.3366" />
		<polyline points="762.468,179.5866 754.343,179.5866 754.343,179.5866 754.343,192.7116 754.343,192.7116 762.468,192.7116" />
		<line x1="754.343" x2="759.343" y1="185.8366" y2="185.8366" />
		<polyline points="44.0453,219.2569 42.7953,218.0069 42.7953,218.0069 40.9203,217.3819 40.9203,217.3819 38.4203,217.3819 38.4203,217.3819 36.5453,218.0069 36.5453,218.0069 35.2953,219.2569 35.2953,219.2569 35.2953,220.5069 35.2953,220.5069 35.9203,221.7569 35.9203,221.7569 36.5453,222.3819 36.5453,222.3819 37.7953,223.0069 37.7953,223.0069 41.5453,224.2569 41.5453,224.2569 42.7953,224.8819 42.7953,224.8819 43.4203,225.5069 43.4203,225.5069 44.0453,226.7569 44.0453,226.7569 44.0453,228.6319 44.0453,228.6319 42.7953,229.8819 42.7953,229.8819 40.9203,230.5069 40.9203,230.5069 38.4203,230.5069 38.4203,230.5069 36.5453,229.8819 36.5453,229.8819 35.2953,228.6319" />
		<polyline points="225.5217,217.3819 225.5217,230.5069 225.5217,230.5069 233.0217,230.5069" />
		<polyline points="384.2028,219.2569 382.9528,218.0069 382.9528,218.0069 381.0778,217.3819 381.0778,217.3819 378.5778,217.3819 378.5778,217.3819 376.7028,218.0069 376.7028,218.0069 375.4528,219.2569 375.4528,219.2569 375.4528,220.5069 375.4528,220.5069 376.0778,221.7569 376.0778,221.7569 376.7028,222.3819 376.7028,222.3819 377.9528,223.0069 377.9528,223.0069 381.7028,224.2569 381.7028,224.2569 382.9528,224.8819 382.9528,224.8819 383.5778,225.5069 383.5778,225.5069 384.2028,226.7569 384.2028,226.7569 384.2028,228.6319 384.2028,228.6319 382.9528,229.8819 382.9528,229.8819 381.0778,230.5069 381.0778,230.5069 378.5778,230.5069 378.5778,230.5069 376.7028,229.8819 376.7028,229.8819 375.4528,228.6319" />
		<polyline points="489.4636,223.6319 495.0886,223.6319 495.0886,223.6319 496.9636,223.0069 496.9636,223.0069 497.5886,222.3819 497.5886,222.3819 498.2136,221.1319 498.2136,221.1319 498.2136,219.8819 498.2136,219.8819 497.5886,218.6319 497.5886,218.6319 496.9636,218.0069 496.9636,218.0069 495.0886,217.3819 495.0886,217.3819 489.4636,217.3819 489.4636,217.3819 489.4636,230.5069" />
		<line x1="493.8386" x2="498.2136" y1="223.6319" y2="230.5069" />
		<polyline points="684.69,217.3819 684.69,227.3819 684.69,227.3819 684.065,229.2569 684.065,229.2569 683.44,229.8819 683.44,229.8819 682.19,230.5069 682.19,230.5069 680.94,230.5069 680.94,230.5069 679.69,229.8819 679.69,229.8819 679.065,229.2569 679.065,229.2569 678.44,227.3819 678.44,227.3819 678.44,226.1319" />
		<polygon points="56.6929,243.7795 56.6929,281.5748 56.6929,281.5748 94.4882,281.5748 94.4882,281.5748 132.2835,281.5748 132.2835,281.5748 170.0787,281.5748 170.0787,281.5748 170.0787,243.7795 170.0787,243.7795 132.2835,243.7795 132.2835,243.7795 94.4882,243.7795 94.4882,243.7795" />
		<line x1="94.4882" x2="94.4882" y1="281.5748" y2="243.7795" />
		<polyline points="60.4577,246.9488 61.0827,246.6363 61.0827,246.6363 62.0202,245.6988 62.0202,245.6988 62.0202,252.2613" />
		<polyline points="66.3952,245.6988 69.8327,245.6988 69.8327,245.6988 67.9577,248.1988 67.9577,248.1988 68.8952,248.1988 68.8952,248.1988 69.5202,248.5113 69.5202,248.5113 69.8327,248.8238 69.8327,248.8238 70.1452,249.7613 70.1452,249.7613 70.1452,250.3863 70.1452,250.3863 69.8327,251.3238 69.8327,251.3238 69.2077,251.9488 69.2077,251.9488 68.2702,252.2613 68.2702,252.2613 67.3327,252.2613 67.3327,252.2613 66.3952,251.9488 66.3952,251.9488 66.0827,251.6363 66.0827,251.6363 65.7702,251.0113" />
		<polyline points="73.7156,262.0522 79.3406,262.0522 79.3406,262.0522 81.2156,261.4272 81.2156,261.4272 81.8406,260.8022 81.8406,260.8022 82.4656,259.5522 82.4656,259.5522 82.4656,257.6772 82.4656,257.6772 81.8406,256.4272 81.8406,256.4272 81.2156,255.8022 81.2156,255.8022 79.3406,255.1772 79.3406,255.1772 73.7156,255.1772 73.7156,255.1772 73.7156,268.3022" />
		<line x1="132.2835" x2="132.2835" y1="281.5748" y2="243.7795" />
		<line x1="115.8858" x2="115.8858" y1="255.1772" y2="268.3022" />
		<polyline points="158.0561,255.1772 158.0561,268.3022 158.0561,268.3022 149.3061,255.1772 149.3061,255.1772 149.3061,268.3022" />
		<polyline points="170.0787,281.5748 207.874,281.5748 207.874,281.5748 207.874,319.3701 207.874,319.3701 170.0787,319.3701 170.0787,319.3701 170.0787,357.1654 170.0787,357.1654 207.874,357.1654 207.874,357.1654 207.874,319.3701 207.874,319.3701 245.6693,319.3701 245.6693,319.3701 245.6693,281.5748 245.6693,281.5748 245.6693,243.7795 245.6693,243.7795 283.4646,243.7795 283.4646,243.7795 283.4646,281.5748 283.4646,281.5748 321.2598,281.5748 321.2598,281.5748 321.2598,243.7795 321.2598,243.7795 283.4646,243.7795" />
		<polyline points="283.4646,281.5748 245.6693,281.5748 245.6693,281.5748 207.874,281.5748 207.874,281.5748 207.874,243.7795 207.874,243.7795 170.0787,243.7795" />
		<line x1="187.1014" x2="187.1014" y1="255.1772" y2="268.3022" />
		<line x1="195.8514" x2="187.1014" y1="255.1772" y2="263.9272" />
		<line x1="190.2264" x2="195.8514" y1="260.8022" y2="268.3022" />
		<polyline points="233.3342,255.1772 225.2092,255.1772 225.2092,255.1772 225.2092,268.3022 225.2092,268.3022 233.3342,268.3022" />
		<line x1="225.2092" x2="230.2092" y1="261.4272" y2="261.4272" />
		<polyline points="262.6919,261.4272 268.3169,261.4272 268.3169,261.4272 270.1919,260.8022 270.1919,260.8022 270.8169,260.1772 270.8169,260.1772 271.4419,258.9272 271.4419,258.9272 271.4419,257.6772 271.4419,257.6772 270.8169,256.4272 270.8169,256.4272 270.1919,255.8022 270.1919,255.8022 268.3169,255.1772 268.3169,255.1772 262.6919,255.1772 262.6919,255.1772 262.6919,268.3022" />
		<line x1="267.0669" x2="271.4419" y1="261.4272" y2="268.3022" />
		<polyline points="308.6122,257.0522 307.3622,255.8022 307.3622,255.8022 305.4872,255.1772 305.4872,255.1772 302.9872,255.1772 302.9872,255.1772 301.1122,255.8022 301.1122,255.8022 299.8622,257.0522 299.8622,257.0522 299.8622,258.3022 299.8622,258.3022 300.4872,259.5522 300.4872,259.5522 301.1122,260.1772 301.1122,260.1772 302.3622,260.8022 302.3622,260.8022 306.1122,262.0522 306.1122,262.0522 307.3622,262.6772 307.3622,262.6772 307.9872,263.3022 307.9872,263.3022 308.6122,264.5522 308.6122,264.5522 308.6122,266.4272 308.6122,266.4272 307.3622,267.6772 307.3622,267.6772 305.4872,268.3022 305.4872,268.3022 302.9872,268.3022 302.9872,268.3022 301.1122,267.6772 301.1122,267.6772 299.8622,266.4272" />
		<polygon points="396.8504,243.7795 396.8504,281.5748 396.8504,281.5748 434.6457,281.5748 434.6457,281.5748 434.6457,243.7795 434.6457,243.7795" />
		<polyline points="400.6152,246.9488 401.2402,246.6363 401.2402,246.6363 402.1777,245.6988 402.1777,245.6988 402.1777,252.2613" />
		<polyline points="409.0527,252.2613 409.0527,245.6988 409.0527,245.6988 405.9277,250.0738 405.9277,250.0738 410.6152,250.0738" />
		<polyline points="413.873,255.1772 413.873,264.5522 413.873,264.5522 414.498,266.4272 414.498,266.4272 415.748,267.6772 415.748,267.6772 417.623,268.3022 417.623,268.3022 418.873,268.3022 418.873,268.3022 420.748,267.6772 420.748,267.6772 421.998,266.4272 421.998,266.4272 422.623,264.5522 422.623,264.5522 422.623,255.1772" />
		<polyline points="434.6457,281.5748 472.4409,281.5748 472.4409,281.5748 510.2362,281.5748 510.2362,281.5748 510.2362,243.7795 510.2362,243.7795 548.0315,243.7795 548.0315,243.7795 548.0315,281.5748 548.0315,281.5748 585.8268,281.5748 585.8268,281.5748 585.8268,243.7795 585.8268,243.7795 548.0315,243.7795" />
		<polyline points="548.0315,281.5748 510.2362,281.5748 510.2362,281.5748 510.2362,319.3701 510.2362,319.3701 472.4409,319.3701 472.4409,319.3701 472.4409,281.5748 472.4409,281.5748 472.4409,243.7795 472.4409,243.7795 434.6457,243.7795" />
		<line x1="456.0433" x2="456.0433" y1="255.1772" y2="268.3022" />
		<line x1="491.9636" x2="491.9636" y1="255.1772" y2="268.3022" />
		<line x1="487.5886" x2="496.3386" y1="255.1772" y2="255.1772" />
		<polyline points="527.8839,255.1772 527.8839,268.3022 527.8839,268.3022 535.3839,268.3022" />
		<line x1="569.4291" x2="569.4291" y1="255.1772" y2="268.3022" />
		<polyline points="585.8268,281.5748 623.622,281.5748 623.622,281.5748 661.4173,281.5748 661.4173,281.5748 661.4173,243.7795 661.4173,243.7795 623.622,243.7795 623.622,243.7795 585.8268,243.7795" />
		<line x1="623.622" x2="623.622" y1="281.5748" y2="243.7795" />
		<line x1="602.8494" x2="602.8494" y1="255.1772" y2="268.3022" />
		<line x1="611.5994" x2="602.8494" y1="255.1772" y2="263.9272" />
		<line x1="605.9744" x2="611.5994" y1="260.8022" y2="268.3022" />
		<line x1="640.6447" x2="640.6447" y1="255.1772" y2="268.3022" />
		<line x1="649.3947" x2="640.6447" y1="255.1772" y2="263.9272" />
		<line x1="643.7697" x2="649.3947" y1="260.8022" y2="268.3022" />
		<polygon points="661.4173,281.5748 699.2126,281.5748 699.2126,281.5748 699.2126,243.7795 699.2126,243.7795 737.0079,243.7795 737.0079,243.7795 737.0079,281.5748 737.0079,281.5748 699.2126,281.5748 699.2126,281.5748 699.2126,319.3701 699.2126,319.3701 661.4173,319.3701 661.4173,319.3701" />
		<polyline points="686.8775,255.1772 678.7525,255.1772 678.7525,255.1772 678.7525,268.3022 678.7525,268.3022 686.8775,268.3022" />
		<line x1="678.7525" x2="683.7525" y1="261.4272" y2="261.4272" />
		<polyline points="724.9852,255.1772 724.9852,268.3022 724.9852,268.3022 716.2352,255.1772 716.2352,255.1772 716.2352,268.3022" />
		<line x1="224.8967" x2="224.8967" y1="292.9724" y2="306.0974" />
		<line x1="233.6467" x2="224.8967" y1="292.9724" y2="301.7224" />
		<line x1="228.0217" x2="233.6467" y1="298.5974" y2="306.0974" />
		<polyline points="495.7136,292.9724 495.7136,302.9724 495.7136,302.9724 495.0886,304.8474 495.0886,304.8474 494.4636,305.4724 494.4636,305.4724 493.2136,306.0974 493.2136,306.0974 491.9636,306.0974 491.9636,306.0974 490.7136,305.4724 490.7136,305.4724 490.0886,304.8474 490.0886,304.8474 489.4636,302.9724 489.4636,302.9724 489.4636,301.7224" />
		<polyline points="686.565,294.8474 685.315,293.5974 685.315,293.5974 683.44,292.9724 683.44,292.9724 680.94,292.9724 680.94,292.9724 679.065,293.5974 679.065,293.5974 677.815,294.8474 677.815,294.8474 677.815,296.0974 677.815,296.0974 678.44,297.3474 678.44,297.3474 679.065,297.9724 679.065,297.9724 680.315,298.5974 680.315,298.5974 684.065,299.8474 684.065,299.8474 685.315,300.4724 685.315,300.4724 685.94,301.0974 685.94,301.0974 686.565,302.3474 686.565,302.3474 686.565,304.2224 686.565,304.2224 685.315,305.4724 685.315,305.4724 683.44,306.0974 683.44,306.0974 680.94,306.0974 680.94,306.0974 679.065,305.4724 679.065,305.4724 677.815,304.2224" />
		<polyline points="173.8435,322.5394 174.4685,322.2269 174.4685,322.2269 175.406,321.2894 175.406,321.2894 175.406,327.8519" />
		<polyline points="182.906,321.2894 179.781,321.2894 179.781,321.2894 179.4685,324.1019 179.4685,324.1019 179.781,323.7894 179.781,323.7894 180.7185,323.4769 180.7185,323.4769 181.656,323.4769 181.656,323.4769 182.5935,323.7894 182.5935,323.7894 183.2185,324.4144 183.2185,324.4144 183.531,325.3519 183.531,325.3519 183.531,325.9769 183.531,325.9769 183.2185,326.9144 183.2185,326.9144 182.5935,327.5394 182.5935,327.5394 181.656,327.8519 181.656,327.8519 180.7185,327.8519 180.7185,327.8519 179.781,327.5394 179.781,327.5394 179.4685,327.2269 179.4685,327.2269 179.156,326.6019" />
		<polyline points="187.1014,337.0177 192.7264,337.0177 192.7264,337.0177 194.6014,336.3927 194.6014,336.3927 195.2264,335.7677 195.2264,335.7677 195.8514,334.5177 195.8514,334.5177 195.8514,333.2677 195.8514,333.2677 195.2264,332.0177 195.2264,332.0177 194.6014,331.3927 194.6014,331.3927 192.7264,330.7677 192.7264,330.7677 187.1014,330.7677 187.1014,330.7677 187.1014,343.8927" />
		<line x1="191.4764" x2="195.8514" y1="337.0177" y2="343.8927" />
		<polyline points="207.874,357.1654 245.6693,357.1654 245.6693,357.1654 245.6693,319.3701 245.6693,319.3701 283.4646,319.3701 283.4646,319.3701 283.4646,357.1654 283.4646,357.1654 321.2598,357.1654 321.2598,357.1654 359.0551,357.1654 359.0551,357.1654 359.0551,319.3701 359.0551,319.3701 321.2598,319.3701 321.2598,319.3701 283.4646,319.3701" />
		<polyline points="233.3342,330.7677 225.2092,330.7677 225.2092,330.7677 225.2092,343.8927 225.2092,343.8927 233.3342,343.8927" />
		<line x1="225.2092" x2="230.2092" y1="337.0177" y2="337.0177" />
		<line x1="245.6693" x2="283.4646" y1="357.1654" y2="357.1654" />
		<line x1="262.6919" x2="262.6919" y1="330.7677" y2="343.8927" />
		<line x1="271.4419" x2="262.6919" y1="330.7677" y2="339.5177" />
		<line x1="265.8169" x2="271.4419" y1="336.3927" y2="343.8927" />
		<line x1="321.2598" x2="321.2598" y1="357.1654" y2="319.3701" />
		<line x1="300.4872" x2="300.4872" y1="330.7677" y2="343.8927" />
		<line x1="309.2372" x2="300.4872" y1="330.7677" y2="339.5177" />
		<line x1="303.6122" x2="309.2372" y1="336.3927" y2="343.8927" />
		<polyline points="346.72,330.7677 338.595,330.7677 338.595,330.7677 338.595,343.8927 338.595,343.8927 346.72,343.8927" />
		<line x1="338.595" x2="343.595" y1="337.0177" y2="337.0177" />
		<polyline points="359.0551,357.1654 396.8504,357.1654 396.8504,357.1654 396.8504,319.3701 396.8504,319.3701 359.0551,319.3701" />
		<polyline points="376.0778,337.0177 381.7028,337.0177 381.7028,337.0177 383.5778,336.3927 383.5778,336.3927 384.2028,335.7677 384.2028,335.7677 384.8278,334.5177 384.8278,334.5177 384.8278,333.2677 384.8278,333.2677 384.2028,332.0177 384.2028,332.0177 383.5778,331.3927 383.5778,331.3927 381.7028,330.7677 381.7028,330.7677 376.0778,330.7677 376.0778,330.7677 376.0778,343.8927" />
		<line x1="380.4528" x2="384.8278" y1="337.0177" y2="343.8927" />
		<polyline points="396.8504,357.1654 434.6457,357.1654 434.6457,357.1654 434.6457,319.3701 434.6457,319.3701 396.8504,319.3701" />
		<line x1="416.373" x2="416.373" y1="330.7677" y2="343.8927" />
		<line x1="411.998" x2="420.748" y1="330.7677" y2="330.7677" />
		<polyline points="434.6457,357.1654 472.4409,357.1654 472.4409,357.1654 472.4409,319.3701 472.4409,319.3701 434.6457,319.3701" />
		<polyline points="457.9183,330.7677 457.9183,340.7677 457.9183,340.7677 457.2933,342.6427 457.2933,342.6427 456.6683,343.2677 456.6683,343.2677 455.4183,343.8927 455.4183,343.8927 454.1683,343.8927 454.1683,343.8927 452.9183,343.2677 452.9183,343.2677 452.2933,342.6427 452.2933,342.6427 451.6683,340.7677 451.6683,340.7677 451.6683,339.5177" />
		<polyline points="472.4409,357.1654 510.2362,357.1654 510.2362,357.1654 510.2362,319.3701" />
		<polyline points="497.9011,330.7677 489.7761,330.7677 489.7761,330.7677 489.7761,343.8927 489.7761,343.8927 497.9011,343.8927" />
		<line x1="489.7761" x2="494.7761" y1="337.0177" y2="337.0177" />
	</g>
</svg>
